<?xml version="1.0" encoding="UTF-8"?>
<!DOCTYPE svg PUBLIC "-//W3C//DTD SVG 1.1//EN" "http://www.w3.org/Graphics/SVG/1.1/DTD/svg11.dtd">
<svg xmlns="http://www.w3.org/2000/svg" xmlns:xlink="http://www.w3.org/1999/xlink" version="1.1" width="400px" height="400px" viewBox="-0.5 -0.5 400 400" style="background-color: rgb(24, 20, 29);"><defs/><rect fill="#18141D" width="100%" height="100%" x="0" y="0"/><g><g data-cell-id="0"><g data-cell-id="1"><g data-cell-id="Kuz9kN4Fmc-Dh8Aq5G9q-6"><g><rect x="0" y="0" width="400" height="400" fill="rgb(24, 20, 29)" stroke="none" pointer-events="all"/></g></g><g data-cell-id="Kuz9kN4Fmc-Dh8Aq5G9q-1"><g><g><svg viewBox="-0.069000244140625 -0.08099937438964844 100.11599731445312 100.0320053100586" height="280" width="280" xmlns="http://www.w3.org/2000/svg" id="svg-image-912DGe3QjY4Anl4zzv0u" x="19.5" y="19.5" style="font-family: initial;">&#xa;<style type="text/css">#svg-image-912DGe3QjY4Anl4zzv0u .st0 { fill: rgb(66, 133, 244); }&#xa;</style>&#xa;	<path d="M62.571 87.551c0 6.848-5.552 12.4-12.4 12.4s-12.4-5.552-12.4-12.4 5.552-12.4 12.4-12.4 12.4 5.552 12.4 12.4zm-37.84-37.657a12.4 12.4 0 0 1-12.4 12.4c-6.848 0-12.4-5.552-12.4-12.4s5.552-12.4 12.4-12.4a12.4 12.4 0 0 1 12.4 12.4zm37.84 0c0 6.848-5.552 12.4-12.4 12.4s-12.4-5.552-12.4-12.4 5.552-12.4 12.4-12.4 12.4 5.552 12.4 12.4zm37.476-37.575c0 6.848-5.552 12.4-12.4 12.4a12.4 12.4 0 0 1-12.4-12.4 12.4 12.4 0 0 1 12.4-12.4c6.848 0 12.4 5.552 12.4 12.4zm-12.4 25.362c-6.715 0-12.213 5.497-12.213 12.213s5.497 12.213 12.213 12.213S99.86 56.609 99.86 49.894s-5.497-12.213-12.213-12.213zm0 5c4.013 0 7.213 3.2 7.213 7.213s-3.2 7.213-7.213 7.213-7.213-3.2-7.213-7.213 3.2-7.213 7.213-7.213zm0 32.656c-6.715 0-12.213 5.497-12.213 12.213s5.497 12.215 12.213 12.215S99.86 94.266 99.86 87.55s-5.497-12.213-12.213-12.213zm0 5c4.013 0 7.213 3.2 7.213 7.213s-3.2 7.215-7.213 7.215-7.213-3.202-7.213-7.215 3.2-7.213 7.213-7.213zm-75.316-5C5.616 75.337.118 80.835.118 87.55s5.497 12.215 12.213 12.215 12.213-5.499 12.213-12.215-5.497-12.213-12.213-12.213zm0 5c4.013 0 7.213 3.2 7.213 7.213s-3.2 7.215-7.213 7.215-7.213-3.202-7.213-7.215 3.2-7.213 7.213-7.213zm0-80.23C5.616.107.118 5.604.118 12.32s5.497 12.213 12.213 12.213 12.213-5.497 12.213-12.213S19.047.107 12.331.107zm0 5c4.013 0 7.213 3.2 7.213 7.213s-3.2 7.213-7.213 7.213-7.213-3.2-7.213-7.213 3.2-7.213 7.213-7.213zm37.84-5c-6.715 0-12.213 5.497-12.213 12.213s5.497 12.213 12.213 12.213 12.213-5.497 12.213-12.213S56.886.107 50.171.107zm0 5c4.013 0 7.213 3.2 7.213 7.213s-3.2 7.213-7.213 7.213-7.213-3.2-7.213-7.213 3.2-7.213 7.213-7.213z" class="st0"/>&#xa;</svg></g></g></g><g data-cell-id="Kuz9kN4Fmc-Dh8Aq5G9q-2"><g><ellipse cx="212" cy="212" rx="112" ry="112" fill="#17141c" stroke="#4285f4" stroke-width="8" pointer-events="all"/><path d="M 290.4 290.4 L 380 380" fill="#17141c" stroke="#4285f4" stroke-width="8" stroke-miterlimit="10" pointer-events="all"/></g></g></g></g></g></svg>